Patient4_TMGait_0pt7_02_right_40_GRF.mot
version=1
nRows=32
nColumns=19
inDegrees=no
endheader
time	F1x	F1y	F1z	M1x	M1y	M1z	F2x	F2y	F2z	M2x	M2y	M2z	EC1x	EC1y	EC1z	EC2x	EC2y	EC2z
45.24	-40.6084	832.0473	44.1424	-296.0337	-59.2538	762.4269	-1.0579	38.9322	11.1142	7.9818	-9.2034	41.9642	-0.0592	0.0182	-0.0073	-0.0462	0.0165	0.9585
45.2517	-28.5937	822.8216	54.1901	-292.3715	-63.3079	769.4982	-0.36971	27.8858	7.4793	5.9753	-6.2853	29.9479	-0.0592	0.0182	-0.0073	-0.0462	0.0165	0.9585
45.2634	-17.5744	811.3885	62.3735	-287.7691	-65.9568	770.7312	0.050235	18.7361	4.4763	4.315	-3.8298	20.102	-0.0592	0.0182	-0.0073	-0.0462	0.0165	0.9585
45.2751	-8.1918	797.828	68.4482	-282.252	-67.2422	765.5515	0.23756	11.9286	2.2216	3.0835	-1.9513	12.8677	-0.0592	0.0182	-0.0073	-0.0462	0.0165	0.9585
45.2869	-0.42789	782.4642	72.3632	-275.9656	-67.1575	754.4701	0.29934	7.3565	0.69975	2.2647	-0.66532	8.0616	-0.0592	0.0182	-0.0073	-0.0462	0.0165	0.9585
45.2986	5.7708	765.7756	74.6132	-269.1165	-66.1393	738.6878	0.25338	4.6555	-0.22764	1.7895	0.14162	5.2704	-0.0592	0.0182	-0.0073	-0.0462	0.0165	0.9585
45.3103	10.7742	748.3842	75.4917	-261.9808	-64.3438	719.6511	0.19144	3.2958	-0.70229	1.5528	0.56999	3.8751	-0.0592	0.0182	-0.0073	-0.0462	0.0165	0.9585
45.322	14.835	730.9785	75.5574	-254.8388	-62.1898	698.8762	0.096639	2.7918	-0.87835	1.4534	0.75594	3.3744	-0.0592	0.0182	-0.0073	-0.0462	0.0165	0.9585
45.3337	18.2463	714.18	75.0625	-247.9578	-59.8054	677.5942	0.034085	2.6676	-0.87804	1.3884	0.78513	3.2222	-0.0592	0.0182	-0.0073	-0.0462	0.0165	0.9585
45.3454	21.2372	698.5999	74.39	-241.5725	-57.4542	656.9313	-0.042704	2.5646	-0.78368	1.2722	0.73086	3.064	-0.0592	0.0182	-0.0073	-0.0462	0.0165	0.9585
45.3571	24.0119	684.7703	73.7236	-235.8918	-55.228	637.7266	-0.061878	2.1293	-0.66608	1.0124	0.63498	2.4895	-0.0592	0.0182	-0.0073	-0.0462	0.0165	0.9585
45.3689	26.7128	673.2245	73.2582	-231.1048	-53.2434	620.6726	-0.078605	1.1667	-0.54441	0.55055	0.52648	1.3191	-0.0592	0.0182	-0.0073	-0.0462	0.0165	0.9585
45.3806	29.5641	664.5036	73.0637	-227.4005	-51.4931	606.3564	-0.031938	-0.51208	-0.44487	-0.16771	0.41211	-0.67423	-0.0592	0.0182	-0.0073	-0.0462	0.0165	0.9585
45.3923	32.6962	659.0687	73.1431	-224.9386	-49.9322	595.179	0.01874	-2.8613	-0.34825	-1.1289	0.28596	-3.3878	-0.0592	0.0182	-0.0073	-0.0462	0.0165	0.9585
45.404	36.218	657.2991	73.5059	-223.8454	-48.5305	587.4266	0.13193	-5.7643	-0.24759	-2.2797	0.12547	-6.722	-0.0592	0.0182	-0.0073	-0.0462	0.0165	0.9585
45.4157	40.2392	659.3025	74.081	-224.1509	-47.1794	583.116	0.2322	-8.7314	-0.097321	-3.4394	-0.092776	-10.0903	-0.0592	0.0182	-0.0073	-0.0462	0.0165	0.9585
45.4274	44.7398	664.8641	74.8647	-225.7707	-45.8672	581.9688	0.3814	-10.9909	0.12231	-4.3017	-0.39936	-12.6614	-0.0592	0.0182	-0.0073	-0.0462	0.0165	0.9585
45.4391	49.7413	673.4098	75.7575	-228.5035	-44.4905	583.407	0.47377	-11.2089	0.44053	-4.3529	-0.79252	-12.8979	-0.0592	0.0182	-0.0073	-0.0462	0.0165	0.9585
45.4509	55.1777	684.001	76.6951	-232.0234	-43.0083	586.5999	0.54739	-7.5766	0.86098	-2.8821	-1.2712	-8.7922	-0.0592	0.0182	-0.0073	-0.0462	0.0165	0.9585
45.4626	60.9568	695.3329	77.5309	-235.8837	-41.3267	590.3922	0.46839	2.3295	1.368	1.0498	-1.7665	2.4403	-0.0592	0.0182	-0.0073	-0.0462	0.0165	0.9585
45.4743	66.8772	705.7229	78.1241	-239.506	-39.3906	593.4295	0.21657	21.2521	1.9074	8.5144	-2.1846	23.8756	-0.0592	0.0182	-0.0073	-0.0462	0.0165	0.9585
45.486	72.7357	713.1514	78.2771	-242.1994	-37.116	594.088	-0.39585	52.0479	2.3757	20.6044	-2.3292	58.7928	-0.0592	0.0182	-0.0073	-0.0462	0.0165	0.9585
45.4977	78.11	715.3964	77.7887	-243.2016	-34.4819	590.6621	-1.4302	96.7932	2.5911	38.111	-1.9463	109.5223	-0.0592	0.0182	-0.0073	-0.0462	0.0165	0.9585
45.5094	82.619	710.2005	76.4297	-241.7375	-31.4665	581.4758	-3.0976	155.8341	2.2786	61.1214	-0.646	176.4902	-0.0592	0.0182	-0.0073	-0.0462	0.0165	0.9585
45.5211	85.6897	695.5202	73.974	-237.1013	-28.1058	565.0975	-5.7744	226.2544	1.0788	88.4517	2.1259	256.3459	-0.0592	0.0182	-0.0073	-0.0462	0.0165	0.9585
45.5329	86.859	669.8093	70.2275	-228.7547	-24.4518	540.4647	-10.645	300.631	-1.4518	117.1526	7.2734	340.6695	-0.0592	0.0182	-0.0073	-0.0462	0.0165	0.9585
45.5446	85.7054	632.2733	65.1353	-216.4096	-20.6398	507.1214	-18.3207	368.8027	-6.2116	143.3038	15.8151	417.7958	-0.0592	0.0182	-0.0073	-0.0462	0.0165	0.9585
45.5563	82.0712	583.2506	58.8171	-200.1437	-16.8586	465.4095	-27.9161	427.1168	-12.7896	165.4674	26.9162	483.4088	-0.0592	0.0182	-0.0073	-0.0462	0.0165	0.9585
45.568	75.9505	524.2156	51.6031	-180.4039	-13.3579	416.562	-38.5918	477.7789	-19.9477	184.5262	38.9223	539.808	-0.0592	0.0182	-0.0073	-0.0462	0.0165	0.9585
45.5797	67.7281	457.4899	44.0074	-157.9273	-10.3974	362.3703	-49.0845	524.3062	-27.0785	201.8658	50.671	590.7978	-0.0592	0.0182	-0.0073	-0.0462	0.0165	0.9585
45.5914	57.7964	386.122	36.4974	-133.7167	-8.1461	305.1705	-58.2708	569.2393	-33.1137	218.5197	60.617	639.1426	-0.0592	0.0182	-0.0073	-0.0462	0.0165	0.9585
45.6031	46.8372	313.7633	29.4525	-109.0071	-6.6337	247.7077	-65.3326	613.4247	-38.0643	234.7998	68.4541	685.788	-0.0592	0.0182	-0.0073	-0.0462	0.0165	0.9585
